<svg width="35" height="34" viewBox="0 0 35 34" fill="none" xmlns="http://www.w3.org/2000/svg">
<path d="M22.4102 33.9999C23.8111 33.9999 24.9468 32.8159 24.9468 31.3554C24.9468 29.8949 23.8111 28.7109 22.4102 28.7109C21.0093 28.7109 19.8737 29.8949 19.8737 31.3554C19.8737 32.8159 21.0093 33.9999 22.4102 33.9999Z" fill="white"/>
<path d="M10.8126 33.9999C12.2135 33.9999 13.3492 32.8159 13.3492 31.3554C13.3492 29.8949 12.2135 28.7109 10.8126 28.7109C9.41167 28.7109 8.276 29.8949 8.276 31.3554C8.276 32.8159 9.41167 33.9999 10.8126 33.9999Z" fill="white"/>
<path d="M5.87023 5.95407L5.58034 9.65631C5.52236 10.3665 6.05867 10.9559 6.73992 10.9559H28.9313C29.5401 10.9559 30.0474 10.4723 30.0909 9.83765C30.2794 7.16296 28.3226 4.98695 25.757 4.98695H7.94298C7.79803 4.32206 7.50814 3.68739 7.0588 3.1585C6.33406 2.35761 5.31943 1.88916 4.27581 1.88916H1.75373C1.15945 1.88916 0.666626 2.40294 0.666626 3.0225C0.666626 3.64206 1.15945 4.15584 1.75373 4.15584H4.27581C4.72515 4.15584 5.1455 4.35228 5.44989 4.68473C5.75428 5.03229 5.89922 5.48562 5.87023 5.95407Z" fill="white"/>
<path d="M28.5858 13.2227H6.35087C5.74209 13.2227 5.24927 13.7062 5.19129 14.3258L4.66948 20.8991C4.46655 23.4832 6.40885 25.6894 8.88745 25.6894H25.0056C27.1798 25.6894 29.0931 23.8307 29.2525 21.564L29.7309 14.5071C29.7888 13.812 29.267 13.2227 28.5858 13.2227Z" fill="white"/>
<rect x="20.3424" width="14.3242" height="14.9334" rx="7.1621" fill="#FF0000"/>
<path d="M24.4235 11V9.79769L27.3789 7.19653C27.6302 6.96532 27.8411 6.75723 28.0113 6.57225C28.1843 6.38728 28.3154 6.20617 28.4046 6.0289C28.4938 5.84907 28.5384 5.65511 28.5384 5.44701C28.5384 5.2158 28.4829 5.0167 28.3721 4.84971C28.2613 4.68015 28.11 4.55042 27.9181 4.4605C27.7262 4.36802 27.5086 4.32177 27.2654 4.32177C27.0113 4.32177 26.7897 4.37058 26.6005 4.46821C26.4113 4.56583 26.2654 4.70584 26.1627 4.88825C26.06 5.07065 26.0086 5.28773 26.0086 5.5395H24.3424C24.3424 5.02312 24.4654 4.57482 24.7113 4.19461C24.9573 3.81439 25.3019 3.52023 25.7451 3.31214C26.1884 3.10405 26.6992 3 27.2775 3C27.8721 3 28.3897 3.10019 28.8302 3.30058C29.2735 3.49839 29.6181 3.77328 29.864 4.12524C30.11 4.4772 30.2329 4.88054 30.2329 5.33526C30.2329 5.63327 30.1708 5.92742 30.0465 6.21773C29.9248 6.50803 29.7073 6.83044 29.3938 7.18497C29.0802 7.53693 28.6384 7.95954 28.0681 8.45279L26.8559 9.58189V9.63584H30.3424V11H24.4235Z" fill="white"/>
</svg>
