<svg width="72" height="12" viewBox="0 0 72 12" fill="none" xmlns="http://www.w3.org/2000/svg">
<path d="M5.54127 1.05787C5.71535 0.656426 6.28465 0.656426 6.45873 1.05787L7.5119 3.48658C7.58435 3.65366 7.74191 3.76813 7.9232 3.78541L10.5585 4.03652C10.9941 4.07803 11.17 4.61946 10.842 4.90907L8.85761 6.66121C8.7211 6.78175 8.66091 6.96697 8.70051 7.14472L9.27603 9.72864C9.37116 10.1557 8.91059 10.4904 8.5338 10.2679L6.2542 8.92207C6.09738 8.82949 5.90262 8.82949 5.7458 8.92207L3.4662 10.2679C3.08941 10.4904 2.62884 10.1557 2.72397 9.72864L3.29949 7.14472C3.33909 6.96697 3.2789 6.78175 3.14239 6.66122L1.158 4.90907C0.829998 4.61946 1.00592 4.07803 1.44151 4.03652L4.0768 3.78541C4.25809 3.76813 4.41565 3.65366 4.4881 3.48658L5.54127 1.05787Z" fill="#FF9901"/>
<path d="M20.5413 1.05787C20.7154 0.656426 21.2846 0.656426 21.4587 1.05787L22.5119 3.48658C22.5844 3.65366 22.7419 3.76813 22.9232 3.78541L25.5585 4.03652C25.9941 4.07803 26.17 4.61946 25.842 4.90907L23.8576 6.66121C23.7211 6.78175 23.6609 6.96697 23.7005 7.14472L24.276 9.72864C24.3712 10.1557 23.9106 10.4904 23.5338 10.2679L21.2542 8.92207C21.0974 8.82949 20.9026 8.82949 20.7458 8.92207L18.4662 10.2679C18.0894 10.4904 17.6288 10.1557 17.724 9.72864L18.2995 7.14472C18.3391 6.96697 18.2789 6.78175 18.1424 6.66122L16.158 4.90907C15.83 4.61946 16.0059 4.07803 16.4415 4.03652L19.0768 3.78541C19.2581 3.76813 19.4156 3.65366 19.4881 3.48658L20.5413 1.05787Z" fill="#FF9901"/>
<path d="M35.5413 1.05787C35.7154 0.656426 36.2846 0.656426 36.4587 1.05787L37.5119 3.48658C37.5844 3.65366 37.7419 3.76813 37.9232 3.78541L40.5585 4.03652C40.9941 4.07803 41.17 4.61946 40.842 4.90907L38.8576 6.66121C38.7211 6.78175 38.6609 6.96697 38.7005 7.14472L39.276 9.72864C39.3712 10.1557 38.9106 10.4904 38.5338 10.2679L36.2542 8.92207C36.0974 8.82949 35.9026 8.82949 35.7458 8.92207L33.4662 10.2679C33.0894 10.4904 32.6288 10.1557 32.724 9.72864L33.2995 7.14472C33.3391 6.96697 33.2789 6.78175 33.1424 6.66122L31.158 4.90907C30.83 4.61946 31.0059 4.07803 31.4415 4.03652L34.0768 3.78541C34.2581 3.76813 34.4156 3.65366 34.4881 3.48658L35.5413 1.05787Z" fill="#FF9901"/>
<path d="M50.5413 1.05787C50.7154 0.656426 51.2846 0.656426 51.4587 1.05787L52.5119 3.48658C52.5844 3.65366 52.7419 3.76813 52.9232 3.78541L55.5585 4.03652C55.9941 4.07803 56.17 4.61946 55.842 4.90907L53.8576 6.66121C53.7211 6.78175 53.6609 6.96697 53.7005 7.14472L54.276 9.72864C54.3712 10.1557 53.9106 10.4904 53.5338 10.2679L51.2542 8.92207C51.0974 8.82949 50.9026 8.82949 50.7458 8.92207L48.4662 10.2679C48.0894 10.4904 47.6288 10.1557 47.724 9.72864L48.2995 7.14472C48.3391 6.96697 48.2789 6.78175 48.1424 6.66122L46.158 4.90907C45.83 4.61946 46.0059 4.07803 46.4415 4.03652L49.0768 3.78541C49.2581 3.76813 49.4156 3.65366 49.4881 3.48658L50.5413 1.05787Z" fill="#FF9901"/>
<path d="M65.5413 1.05787C65.7154 0.656426 66.2846 0.656426 66.4587 1.05787L67.5119 3.48658C67.5844 3.65366 67.7419 3.76813 67.9232 3.78541L70.5585 4.03652C70.9941 4.07803 71.17 4.61946 70.842 4.90907L68.8576 6.66121C68.7211 6.78175 68.6609 6.96697 68.7005 7.14472L69.276 9.72864C69.3712 10.1557 68.9106 10.4904 68.5338 10.2679L66.2542 8.92207C66.0974 8.82949 65.9026 8.82949 65.7458 8.92207L63.4662 10.2679C63.0894 10.4904 62.6288 10.1557 62.724 9.72864L63.2995 7.14472C63.3391 6.96697 63.2789 6.78175 63.1424 6.66122L61.158 4.90907C60.83 4.61946 61.0059 4.07803 61.4415 4.03652L64.0768 3.78541C64.2581 3.76813 64.4156 3.65366 64.4881 3.48658L65.5413 1.05787Z" fill="#FF9901"/>
</svg>
